<?xml version="1.0" encoding="utf-8"?>
<!-- Generator: Adobe Illustrator 21.0.2, SVG Export Plug-In . SVG Version: 6.00 Build 0)  -->
<svg version="1.1" id="Layer_1" xmlns="http://www.w3.org/2000/svg" xmlns:xlink="http://www.w3.org/1999/xlink" x="0px" y="0px"
	 viewBox="0 0 100 100" style="enable-background:new 0 0 100 100;" xml:space="preserve">
<path d="M60.6,30c0-5.5-4.5-10-10.1-10c-5.6,0-10.1,4.5-10.1,10s4.5,10,10.1,10C56.1,40,60.6,35.5,60.6,30z M44.4,30
	c0-3.3,2.7-6,6.1-6s6.1,2.7,6.1,6s-2.7,6-6.1,6S44.4,33.3,44.4,30z M50,64.8l1.4-1.4C67.9,47.1,69.2,35.2,69.2,32v-2
	c0-10.5-8.6-19-19.2-19s-19.2,8.5-19.2,19v2c0,3.2,1.3,15.1,17.8,31.4L50,64.8z M34.8,30c0-8.3,6.8-15,15.2-15
	c8.4,0,15.2,6.7,15.2,15v2c0,2-0.8,12.3-15.2,27.1C35.6,44.3,34.8,33.9,34.8,32V30z M94.8,75.7L72.7,89l-22.4-7.4
	c-0.2-0.1-0.4-0.2-0.5-0.3c-0.2,0.1-0.3,0.2-0.5,0.3L26.9,89L4.8,75.7l11.9-42.9L29,40.2c1,0.6,1.3,1.8,0.7,2.7
	c-0.6,0.9-1.8,1.2-2.8,0.7L19.2,39L9.5,73.8L26,83.8l3.8-33c0.1-1.1,1.1-1.9,2.2-1.8c1.1,0.1,1.9,1.1,1.8,2.2l-3.8,32.5L48,77.8
	c0,0,0,0,0,0v-6.9c0-1.1,0.9-2,2-2c1.1,0,2,0.9,2,2v7c0,0,0,0,0,0L70,83.9l-3.8-32.7c-0.1-1.1,0.7-2.1,1.8-2.2
	c1.1-0.1,2.1,0.7,2.2,1.8L74,83.5l16.1-9.7L80.4,39l-7.7,4.6c-1,0.6-2.2,0.3-2.8-0.7c-0.6-0.9-0.3-2.2,0.7-2.7l12.3-7.4L94.8,75.7z"
	/>
</svg>
