<?xml version="1.0" encoding="utf-8"?>
<!-- Generator: Adobe Illustrator 21.0.2, SVG Export Plug-In . SVG Version: 6.00 Build 0)  -->
<svg version="1.1" id="Layer_1" xmlns="http://www.w3.org/2000/svg" xmlns:xlink="http://www.w3.org/1999/xlink" x="0px" y="0px"
	 viewBox="0 0 100 100" style="enable-background:new 0 0 100 100;" xml:space="preserve">
<path d="M90.1,21.9l-8-8C81.6,13.3,80.8,13,80,13H53V8c0-1.7-1.3-3-3-3s-3,1.3-3,3v5H34c-1.7,0-3,1.3-3,3v16c0,1.7,1.3,3,3,3h13v4
	H20c-0.8,0-1.6,0.3-2.1,0.9l-8,8c-1.2,1.2-1.2,3.1,0,4.2l8,8c0.6,0.6,1.3,0.9,2.1,0.9h27v28H36c-1.7,0-3,1.3-3,3c0,1.7,1.3,3,3,3h28
	c1.7,0,3-1.3,3-3c0-1.7-1.3-3-3-3H53V61h13c1.7,0,3-1.3,3-3V42c0-1.7-1.3-3-3-3H53v-4h27c0.8,0,1.6-0.3,2.1-0.9l8-8
	C91.3,25,91.3,23,90.1,21.9z M63,45v10H21.2l-5-5l5-5H63z M78.8,29H37V19h41.8l5,5L78.8,29z"/>
</svg>
